<?xml version="1.0" encoding="utf-8"?>
<!-- Generator: Adobe Illustrator 27.4.0, SVG Export Plug-In . SVG Version: 6.00 Build 0)  -->
<svg version="1.1" id="Layer_1" xmlns="http://www.w3.org/2000/svg" xmlns:xlink="http://www.w3.org/1999/xlink" x="0px" y="0px"
	 viewBox="0 0 911.5 911.5" style="enable-background:new 0 0 911.5 911.5;" xml:space="preserve">
<style type="text/css">
	.st0{fill:#FFFFFF;stroke:#000000;stroke-miterlimit:10;}
	.st1{fill:#FF8B85;}
</style>
<rect x="0.5" y="0.5" class="st0" width="910.5" height="910.5"/>
<g id="Object">
	<g id="Bubbles">
		<g id="Bubble3">
			<path class="st1" d="M348.2,152c-35.6-3.1-66.9,23.2-70.1,58.7s23.2,66.9,58.7,70.1c35.6,3.1,66.9-23.2,70.1-58.7
				C410,186.5,383.7,155.1,348.2,152z M373.3,184c-16.6-14.7-42-13.2-56.7,3.4s-13.2,42,3.4,56.7c1.9,1.7,4,3.2,6.1,4.5
				c-5.7-1.7-11-4.7-15.8-8.9c-17.8-15.9-19.5-43.2-3.6-61c15.8-17.8,43.2-19.5,61-3.6c4.6,4.1,8.1,9,10.5,14.2
				C376.7,187.3,375.1,185.6,373.3,184z"/>
		</g>
		<g id="Bubble2">
			<circle class="st1" cx="471.1" cy="305.4" r="64.6"/>
		</g>
		<g id="Bubble1">
			<path class="st1" d="M573.7,84.6c-35.6-3.1-66.9,23.2-70,58.7c-3.1,35.6,23.2,66.9,58.7,70.1c35.6,3.1,66.9-23.2,70.1-58.7
				C635.6,119.1,609.3,87.8,573.7,84.6z M598.8,116.6c-16.6-14.7-42-13.2-56.7,3.4s-13.2,42,3.4,56.7c1.9,1.7,4,3.2,6.1,4.5
				c-5.7-1.8-11.1-4.7-15.8-8.9c-17.8-15.8-19.4-43.1-3.6-61c15.8-17.8,43.1-19.4,61-3.6c4.6,4.1,8.1,8.9,10.5,14.2
				C602.3,120,600.6,118.2,598.8,116.6z"/>
		</g>
		<g id="PoppedBubble">
			<path class="st1" d="M469.7,18.4c0,10.8,1.7,31.7,3.7,31.7s3.7-20.9,3.7-31.7s-1.7-12.7-3.7-12.7C471.4,5.8,469.7,7.6,469.7,18.4
				z"/>
			<path class="st1" d="M435,59.3c10.8,0,31.7-1.7,31.7-3.7s-20.9-3.7-31.7-3.7s-12.7,1.7-12.7,3.7S424.1,59.3,435,59.3z"/>
			<path class="st1" d="M512.6,51.9c-10.8,0-31.7,1.7-31.7,3.7s20.9,3.7,31.7,3.7c10.8,0,12.7-1.7,12.7-3.7S523.5,51.9,512.6,51.9z"
				/>
			<path class="st1" d="M477.1,93.9c0-10.8-1.7-31.7-3.7-31.7s-3.7,20.9-3.7,31.7s1.7,12.7,3.7,12.7
				C475.5,106.6,477.1,104.8,477.1,93.9z"/>
			<circle class="st1" cx="473.1" cy="55.2" r="2"/>
		</g>
	</g>
	<path id="Body" class="st1" d="M827.7,450.3c-0.7-3.7-1.7-7.3-3.2-10.8c-2.9-6.7-7.3-12.8-12.8-17.5c-8-6.9-18-10.9-28.2-13.6
		c-6.1-1.6-12.3-2.7-18.4-3.8l-39.7-0.1c2.4-2,3.8-4.9,3.8-8.3v-4.3c0-6-4.9-10.9-10.9-10.9h-531c-6,0-10.9,4.9-10.9,10.9v4.3
		c0,2.8,1,5.3,2.8,7.2c-6.5,0.3-23.3-0.7-25.2-0.2c-2.5,0.7-5.1,0.9-7.6,1.4c-6.2,1.1-12.4,2.3-18.4,3.8
		c-10.2,2.7-20.2,6.7-28.2,13.6c-5.6,4.8-9.9,10.8-12.8,17.6c-1.5,3.4-2.6,7-3.2,10.7c-0.7,4-0.4,7.2,0.2,11.2
		c0.6,3.9,1.1,7.9,2.4,11.7c0.9,2.8,2.3,5.5,3.6,8.1c2.6,4.9,5.7,9.6,9.3,13.9c5.8,6.8,12.8,12.5,20.6,16.8
		c6.9,3.8,13.9,7.7,20.8,11.5c6.4,3.5,12.8,7,19.5,10.1c0.1,0.1,0.3,0.2,0.4,0.3c0,0.1,0,0.3,0,0.4c-2.4,9.5-4.2,19.2-6.1,28.8
		c-1.9,9.5-3.7,19.1-5.4,28.7c-5.6,31.3-7.5,60-1.9,91.4c6.3,35.9,18.4,71.2,38.2,102c71.2,111,214.4,131.6,335.4,115.9
		c37.3-4.8,70.6-12,103.8-29.3c39.8-20.7,77.3-48.4,101.8-86.6c18.2-28.3,31-60.4,37.8-93.3c7-34.3,4.5-66-1.5-100.1
		c-1.7-9.6-3.5-19.1-5.4-28.6c-1.9-9.6-3.7-19.3-6.1-28.8c0-0.1-0.1-0.3,0-0.4c0.1-0.2,0.2-0.2,0.4-0.3c6.6-3.1,13.1-6.6,19.5-10.1
		c6.9-3.8,13.9-7.6,20.8-11.5c7.8-4.3,14.9-10,20.6-16.8c3.6-4.2,6.7-8.9,9.3-13.9c1.4-2.6,2.7-5.3,3.6-8.1
		c1.3-3.8,1.8-7.8,2.4-11.7C828.2,457.6,828.4,454.3,827.7,450.3z M170.1,493.9c-13.6,5.5-31.7-2.8-42-11.7
		c-7.3-6.3-13.1-15.2-13.3-24.9c-0.4-29.3,45.8-18.7,65-13.9L170.1,493.9z M784.8,480.5c-9,11.7-23.4,20.2-38.1,21.5
		c-2.9,0.3-6,0.3-8.8-0.8l-13.7-51.5c1.3-1.6,3.3-2.5,5.2-3.4c13-5.5,30.1-10,44-5.5c7.8,2.5,14.9,8.4,17.1,16.4
		C792.8,465.1,789.8,473.9,784.8,480.5z"/>
</g>
</svg>
