<?xml version="1.0" encoding="utf-8"?>
<!-- Generator: Adobe Illustrator 27.4.0, SVG Export Plug-In . SVG Version: 6.00 Build 0)  -->
<svg version="1.1" id="Cauldron" xmlns="http://www.w3.org/2000/svg" xmlns:xlink="http://www.w3.org/1999/xlink" x="0px" y="0px"
	 viewBox="0 0 1920 1080" style="enable-background:new 0 0 1920 1080;" xml:space="preserve">
<style type="text/css">
	.st0{fill:#FF8B85;}
	.st1{fill:#FFFFFF;}
	
		.st2{display:none;fill:url(#Gradient_00000121241112402105990840000008832056652945674422_);stroke:url(#Gradient_00000096059573170891226240000017121231046274923174_);stroke-miterlimit:10;}
</style>
<g id="Object">
	<g id="Bubbles">
		<g id="Bubble3">
			<g id="PoppedBubble_00000047038031493906442190000002699915340654931589_">
				<path class="st0" d="M792.9,615.1c0,10.8,1.7,31.7,3.7,31.7c2,0,3.7-20.9,3.7-31.7s-1.7-12.7-3.7-12.7
					C794.5,602.4,792.9,604.3,792.9,615.1z"/>
				<path class="st0" d="M758.1,656c10.8,0,31.7-1.7,31.7-3.7s-20.9-3.7-31.7-3.7c-10.8,0-12.7,1.7-12.7,3.7S747.3,656,758.1,656z"
					/>
				<path class="st0" d="M835.8,648.5c-10.8,0-31.7,1.7-31.7,3.7s20.9,3.7,31.7,3.7s12.7-1.7,12.7-3.7S846.6,648.5,835.8,648.5z"/>
				<path class="st0" d="M800.3,690.6c0-10.8-1.7-31.7-3.7-31.7c-2,0-3.7,20.9-3.7,31.7s1.7,12.7,3.7,12.7
					C798.6,703.3,800.3,701.4,800.3,690.6z"/>
				<circle class="st0" cx="796.3" cy="651.9" r="2"/>
			</g>
			<path id="Bubble_00000099631741200099579340000010853885084677499295_" class="st0" d="M804.5,588.4
				c-35.6-3.1-66.9,23.2-70.1,58.7c-3.1,35.6,23.2,66.9,58.7,70.1c35.6,3.1,66.9-23.2,70.1-58.8C866.3,622.9,840,591.6,804.5,588.4z
				 M829.6,620.4c-16.6-14.7-42-13.2-56.7,3.4c-14.7,16.6-13.2,42,3.4,56.7c1.9,1.7,4,3.2,6.1,4.5c-5.7-1.8-11-4.7-15.8-8.9
				c-17.8-15.8-19.5-43.2-3.6-61c15.8-17.8,43.2-19.5,61-3.6c4.6,4.1,8.1,8.9,10.5,14.2C833,623.8,831.4,622,829.6,620.4z"/>
			<path id="Reflection_00000070107563775308584650000017712511428957940652_" class="st1" d="M834.4,625.6
				c-1.4-1.8-3.1-3.6-4.9-5.2c-16.6-14.7-42-13.2-56.7,3.4c-14.7,16.6-13.2,42,3.4,56.7c1.9,1.7,4,3.2,6.1,4.5
				c-5.7-1.8-11-4.7-15.8-8.9c-17.8-15.8-19.5-43.2-3.6-61c15.8-17.8,43.2-19.5,61-3.6C828.5,615.5,832,620.4,834.4,625.6z"/>
		</g>
		<g id="Bubble2">
			<g id="PoppedBubble">
				<path class="st0" d="M948.8,657.5c0,10.8,1.7,31.7,3.7,31.7c2,0,3.7-20.9,3.7-31.7s-1.7-12.7-3.7-12.7
					C950.5,644.9,948.8,646.7,948.8,657.5z"/>
				<path class="st0" d="M914.1,698.4c10.8,0,31.7-1.7,31.7-3.7c0-2-20.9-3.7-31.7-3.7s-12.7,1.7-12.7,3.7
					C901.4,696.7,903.2,698.4,914.1,698.4z"/>
				<path class="st0" d="M991.8,691c-10.8,0-31.7,1.7-31.7,3.7c0,2,20.9,3.7,31.7,3.7c10.8,0,12.7-1.7,12.7-3.7
					C1004.4,692.7,1002.6,691,991.8,691z"/>
				<path class="st0" d="M956.2,733c0-10.8-1.7-31.7-3.7-31.7c-2,0-3.7,20.9-3.7,31.7s1.7,12.7,3.7,12.7
					C954.6,745.7,956.2,743.9,956.2,733z"/>
				<circle class="st0" cx="952.2" cy="694.3" r="2"/>
			</g>
			<circle class="st0" cx="954.3" cy="695.3" r="64.6"/>
		</g>
		<g id="Bubble2_00000127742244700380239210000013734324390359107501_">
			<g id="PoppedBubble_00000175287163737055570040000005961611037872909473_">
				<path class="st0" d="M1093.4,837.2c0,10.8,1.7,31.7,3.7,31.7s3.7-20.9,3.7-31.7s-1.7-12.7-3.7-12.7S1093.4,826.4,1093.4,837.2z"
					/>
				<path class="st0" d="M1058.7,878.1c10.8,0,31.7-1.7,31.7-3.7c0-2-20.9-3.7-31.7-3.7c-10.8,0-12.7,1.7-12.7,3.7
					C1046,876.4,1047.9,878.1,1058.7,878.1z"/>
				<path class="st0" d="M1136.4,870.7c-10.8,0-31.7,1.7-31.7,3.7c0,2,20.9,3.7,31.7,3.7c10.8,0,12.7-1.7,12.7-3.7
					C1149,872.3,1147.2,870.7,1136.4,870.7z"/>
				<path class="st0" d="M1100.9,912.7c0-10.8-1.7-31.7-3.7-31.7s-3.7,20.9-3.7,31.7s1.7,12.7,3.7,12.7S1100.9,923.6,1100.9,912.7z"
					/>
				<circle class="st0" cx="1096.9" cy="874" r="2"/>
			</g>
			<circle class="st0" cx="1098.9" cy="875" r="64.6"/>
		</g>
		<g id="Bubble4">
			<g id="PoppedBubble_00000024691810673434889060000015186286828602917034_">
				<path class="st0" d="M988.4,279.8c0,10.8,1.7,31.7,3.7,31.7c2,0,3.7-20.9,3.7-31.7s-1.7-12.7-3.7-12.7
					C990.1,267.1,988.4,268.9,988.4,279.8z"/>
				<path class="st0" d="M953.7,320.6c10.8,0,31.7-1.7,31.7-3.7c0-2-20.9-3.7-31.7-3.7s-12.7,1.7-12.7,3.7
					C941,319,942.8,320.6,953.7,320.6z"/>
				<path class="st0" d="M1031.3,313.2c-10.8,0-31.7,1.7-31.7,3.7c0,2,20.9,3.7,31.7,3.7c10.8,0,12.7-1.7,12.7-3.7
					C1044,314.9,1042.2,313.2,1031.3,313.2z"/>
				<path class="st0" d="M995.8,355.2c0-10.8-1.7-31.7-3.7-31.7c-2,0-3.7,20.9-3.7,31.7s1.7,12.7,3.7,12.7
					C994.2,367.9,995.8,366.1,995.8,355.2z"/>
				<circle class="st0" cx="991.8" cy="316.6" r="2"/>
			</g>
			<path id="Bubble" class="st0" d="M998.2,253.1c-35.6-3.1-66.9,23.1-70,58.7c-3.1,35.6,23.2,66.9,58.7,70
				c35.6,3.1,66.9-23.1,70.1-58.7C1060,287.6,1033.7,256.2,998.2,253.1z M1023.3,285.1c-16.6-14.7-42-13.2-56.7,3.4
				c-14.7,16.6-13.2,42,3.4,56.7c1.9,1.7,4,3.2,6.1,4.5c-5.7-1.8-11.1-4.7-15.8-8.9c-17.8-15.8-19.5-43.1-3.6-61
				c15.8-17.8,43.1-19.5,61-3.6c4.6,4.1,8.1,8.9,10.5,14.2C1026.7,288.4,1025.1,286.7,1023.3,285.1z"/>
			<path id="Reflection" class="st1" d="M1028.1,290.3c-1.4-1.9-3.1-3.6-4.9-5.2c-16.6-14.7-42-13.2-56.7,3.4
				c-14.7,16.6-13.2,42,3.4,56.7c1.9,1.7,4,3.2,6.1,4.5c-5.7-1.8-11.1-4.7-15.8-8.9c-17.8-15.8-19.5-43.1-3.6-61
				c15.8-17.8,43.1-19.5,61-3.6C1022.2,280.2,1025.7,285,1028.1,290.3z"/>
		</g>
		<g id="Bubble1_00000085208198651387989420000007997862429772805029_">
			<g id="PoppedBubble_00000156557700775426890690000013665791820465084576_">
				<path class="st0" d="M1108,643.3c0,10.8,1.7,31.7,3.7,31.7s3.7-20.9,3.7-31.7s-1.7-12.7-3.7-12.7S1108,632.5,1108,643.3z"/>
				<path class="st0" d="M1073.2,684.2c10.8,0,31.7-1.7,31.7-3.7s-20.9-3.7-31.7-3.7c-10.8,0-12.7,1.7-12.7,3.7
					S1062.4,684.2,1073.2,684.2z"/>
				<path class="st0" d="M1150.9,676.8c-10.8,0-31.7,1.7-31.7,3.7s20.9,3.7,31.7,3.7c10.8,0,12.7-1.7,12.7-3.7
					S1161.7,676.8,1150.9,676.8z"/>
				<path class="st0" d="M1115.4,718.8c0-10.8-1.7-31.7-3.7-31.7s-3.7,20.9-3.7,31.7s1.7,12.7,3.7,12.7S1115.4,729.6,1115.4,718.8z"
					/>
				<circle class="st0" cx="1111.4" cy="680.1" r="2"/>
			</g>
			<path id="Bubble_00000023971053127121271640000000216799261509265558_" class="st0" d="M1117.7,616.7
				c-35.6-3.1-66.9,23.1-70,58.7c-3.1,35.6,23.2,66.9,58.7,70c35.6,3.1,66.9-23.1,70.1-58.7C1179.6,651.2,1153.3,619.8,1117.7,616.7
				z M1142.8,648.6c-16.6-14.7-42-13.2-56.7,3.4c-14.7,16.6-13.2,42,3.4,56.7c1.9,1.7,4,3.2,6.1,4.5c-5.7-1.8-11.1-4.7-15.8-8.9
				c-17.8-15.8-19.4-43.1-3.6-61c15.8-17.8,43.1-19.5,61-3.6c4.6,4.1,8.1,8.9,10.5,14.2C1146.2,652,1144.6,650.3,1142.8,648.6z"/>
			<path id="Reflection_00000089533213986337506130000009483480265179137158_" class="st1" d="M1147.7,653.9
				c-1.4-1.9-3.1-3.6-4.9-5.2c-16.6-14.7-42-13.2-56.7,3.4c-14.7,16.6-13.2,42,3.4,56.7c1.9,1.7,4,3.2,6.1,4.5
				c-5.7-1.8-11.1-4.7-15.8-8.9c-17.8-15.8-19.4-43.1-3.6-61c15.8-17.8,43.1-19.5,61-3.6C1141.7,643.7,1145.3,648.6,1147.7,653.9z"
				/>
		</g>
	</g>
	<path id="Body" class="st0" d="M1321.2,596.2c-0.7-3.7-1.7-7.3-3.2-10.8c-2.9-6.7-7.3-12.8-12.8-17.5c-8-6.9-18-10.9-28.2-13.6
		c-6.1-1.6-12.3-2.7-18.4-3.8l-39.7-0.1c2.4-2,3.8-4.9,3.8-8.3v-4.3c0-6-4.9-10.9-10.9-10.9h-531c-6,0-10.9,4.9-10.9,10.9v4.3
		c0,2.8,1,5.3,2.8,7.2c-6.5,0.3-23.3-0.7-25.2-0.2c-2.5,0.7-5.1,0.9-7.6,1.4c-6.2,1.1-12.4,2.3-18.4,3.8
		c-10.2,2.7-20.2,6.7-28.2,13.6c-5.6,4.8-9.9,10.8-12.8,17.6c-1.5,3.4-2.6,7-3.2,10.7c-0.7,4-0.4,7.2,0.2,11.2
		c0.6,3.9,1.1,7.9,2.4,11.7c0.9,2.8,2.3,5.5,3.6,8.1c2.6,4.9,5.7,9.6,9.3,13.9c5.8,6.8,12.8,12.5,20.6,16.8
		c6.9,3.8,13.9,7.7,20.8,11.5c6.4,3.5,12.8,7,19.5,10.1c0.1,0.1,0.3,0.2,0.4,0.3c0,0.1,0,0.3,0,0.4c-2.4,9.5-4.2,19.2-6.1,28.8
		c-1.9,9.5-3.7,19.1-5.4,28.7c-5.6,31.3-7.5,60-1.9,91.4c6.3,35.9,18.4,71.2,38.2,102c71.2,111,214.4,131.6,335.4,115.9
		c37.3-4.8,70.6-12,103.8-29.3c39.8-20.7,77.3-48.4,101.8-86.6c18.2-28.3,31-60.4,37.8-93.3c7-34.3,4.5-66-1.5-100.1
		c-1.7-9.6-3.5-19.1-5.4-28.6c-1.9-9.6-3.7-19.3-6.1-28.8c0-0.1-0.1-0.3,0-0.4c0.1-0.2,0.2-0.2,0.4-0.3c6.6-3.1,13.1-6.6,19.5-10.1
		c6.9-3.8,13.9-7.6,20.8-11.5c7.8-4.3,14.9-10,20.6-16.8c3.6-4.2,6.7-8.9,9.3-13.9c1.4-2.6,2.7-5.3,3.6-8.1
		c1.3-3.8,1.8-7.8,2.4-11.7C1321.7,603.4,1321.9,600.2,1321.2,596.2z M663.6,639.8c-13.6,5.5-31.7-2.8-42-11.7
		c-7.3-6.3-13.1-15.2-13.3-24.9c-0.4-29.3,45.8-18.7,65-13.9L663.6,639.8z M1278.3,626.3c-9,11.7-23.4,20.2-38.1,21.5
		c-2.9,0.3-6,0.3-8.8-0.8l-13.7-51.5c1.3-1.6,3.3-2.5,5.2-3.4c13-5.5,30.1-10,44-5.5c7.8,2.5,14.9,8.4,17.1,16.4
		C1286.3,611,1283.3,619.7,1278.3,626.3z"/>
</g>
<linearGradient id="Gradient_00000128478683193723400470000018068057210261935529_" gradientUnits="userSpaceOnUse" x1="-2.8209" y1="537.9922" x2="1951.7765" y2="537.9922">
	<stop  offset="0.2189" style="stop-color:#CCAAFF"/>
	<stop  offset="0.7309" style="stop-color:#EF89C5;stop-opacity:0.3445"/>
	<stop  offset="1" style="stop-color:#FF7BAC;stop-opacity:0"/>
</linearGradient>
<linearGradient id="Gradient_00000075870410759055034070000014570320274190430644_" gradientUnits="userSpaceOnUse" x1="-3.3209" y1="537.9922" x2="1952.2765" y2="537.9922">
	<stop  offset="0" style="stop-color:#FFFFFF"/>
	<stop  offset="1" style="stop-color:#000000"/>
</linearGradient>
<rect id="Gradient" x="-2.8" y="-2" style="display:none;fill:url(#Gradient_00000128478683193723400470000018068057210261935529_);stroke:url(#Gradient_00000075870410759055034070000014570320274190430644_);stroke-miterlimit:10;" width="1954.6" height="1080"/>
</svg>
